<svg version="1.1" xmlns="http://www.w3.org/2000/svg" xmlns:xlink="http://www.w3.org/1999/xlink" x="0px" y="0px"
         viewBox="655.5 76.5 640 639" fill="#717C80" xml:space="preserve">
<path d="M975.5,76c-176.7,0-320,143.3-320,320s143.3,320,320,320s320-143.3,320-320S1152.2,76,975.5,76z M1153,158.5H975.5V196h89
    v428.5l-268-465.1c49.7-37.6,111.7-59.9,178.8-59.9C1041.9,99.5,1103.4,121.5,1153,158.5z M678.5,396.4
    c0-80.1,31.7-152.7,83.3-206.1v412.3C710.2,549.1,678.5,476.5,678.5,396.4z M975.3,693.2c-65.9,0-126.8-21.5-176.1-57.8V240.9
    l255,441.7C1029.1,689.5,1002.7,693.2,975.3,693.2z M1102,664.9V196h92.4c48.3,52.8,77.8,123.1,77.8,200.3
    C1272.2,515,1202.6,617.4,1102,664.9z"/>
</svg>